:SAMPLES-PER-SECOND 30
:FULLY-SPECIFIED
:DEGREES
339
root  8.473222087 37.0271097 4.653133182 -173.2769775 -59.27109909 168.1799927
lowerback  14.98219967 4.739389896 3.03572011
upperback  7.865300179 6.051919937 4.160870075
thorax  -0.1694470048 2.754260063 1.755689979
lowerneck  9.763890266 8.535969734 3.073630095
upperneck  14.31509972 10.73589993 2.365740061
head  3.012510061 5.29377985 0.2169679999
lclavicle  0 -9.442270133e-015 7.951389973e-016
lhumerus  19.28070068 7.784399986 64.59100342
lradius  2.408897473e-031 -2.581870834e-031 133.0149994
lwrist  -1.412450015e-030 -8.827812596e-032 39.43439865
lhand  -1.496451383e-031 -27.76390076 20.11240005
lfingers  90 7.125020027 -90
lthumb  89.89689403 5.08795885 91.16245106
rclavicle  0 -9.442270133e-015 7.951389973e-016
rhumerus  51.66870117 24.72559929 -69.15110016
rradius  -4.627619485e-032 3.500670709e-031 97.53040314
rwrist  0 1.059337512e-030 -75.43119812
rhand  -7.920061211e-032 -33.2840004 9.303460121
rfingers  -90 -7.125020027 -90
rthumb  -92.93752616 -24.25625642 -97.11982154
rfemur  -17.13660049 8.798910141 -4.048530102
rtibia  -0 0 65.18430328
rfoot  -4.741759803e-032 -21.43099976 -3.233259916
rtoes  5.373923086 19.29304026 -105.8922705
lfemur  -21.81450081 -2.405230045 -8.627420425
ltibia  -0 0 61.49980164
lfoot  4.616566994e-032 -17.03980064 6.156859875
ltoes  -4.250644065 -19.5611806 -102.515957
340
root  8.38722244 36.87399917 4.602266672 -173.7849731 -59.44110107 168.7459717
lowerback  14.32960033 4.548389912 3.325799942
upperback  7.748310089 5.836090088 3.872550011
thorax  0.1142159998 2.676549911 1.370460033
lowerneck  9.565329552 8.603870392 3.0338099
upperneck  13.94709969 10.83539963 2.522989988
head  2.905950069 5.348350048 0.2692930102
lclavicle  0 -9.442270133e-015 7.951389973e-016
lhumerus  17.67160034 6.95058012 65.23079681
lradius  2.425475481e-031 -2.56630332e-031 133.3840027
lwrist  -1.412450015e-030 -0 37.78680038
lhand  -1.496451383e-031 -27.76390076 20.11240005
lfingers  90 7.125020027 -90
lthumb  89.89689403 5.08795885 91.16245106
rclavicle  0 -9.442270133e-015 7.951389973e-016
rhumerus  49.97719955 25.02260017 -69.1006012
rradius  -4.9206015e-032 3.496672825e-031 98.0102005
rwrist  7.062250077e-031 7.062250077e-031 -73.71330261
rhand  -7.920061211e-032 -33.2840004 9.303460121
rfingers  -90 -7.125020027 -90
rthumb  -92.93752616 -24.25625642 -97.11982154
rfemur  -15.76229954 8.585599899 -3.186049938
rtibia  -0 0 64.02539825
rfoot  -4.855503633e-032 -24.62529945 -3.805140018
rtoes  5.373923086 19.29304026 -105.8922705
lfemur  -21.23419952 -1.742609978 -8.389940262
ltibia  -0 0 61.04949951
lfoot  -0 -18.90909958 6.706600189
ltoes  -4.250644065 -19.5611806 -102.515957
341
root  8.300378003 36.76311163 4.55208876 -174.0269775 -59.48699951 169.2849731
lowerback  13.73980045 4.487579823 3.371449947
upperback  7.387310028 5.799220085 3.738409996
thorax  0.06289649755 2.68166995 1.236240029
lowerneck  9.543470383 8.542739868 2.99003005
upperneck  13.57979965 10.78190041 2.492280006
head  2.781120062 5.320819855 0.2554669976
lclavicle  0 -9.442270133e-015 7.951389973e-016
lhumerus  15.55490017 5.993589878 66.32720184
lradius  2.447689272e-031 -2.545125e-031 133.8820038
lwrist  0 2.206953149e-031 35.92789841
lhand  -1.496451383e-031 -27.76390076 20.11240005
lfingers  90 7.125020027 -90
lthumb  89.89689403 5.08795885 91.16245106
rclavicle  0 -9.442270133e-015 7.951389973e-016
rhumerus  47.86109924 25.51210022 -68.85019684
rradius  -5.265043388e-032 3.491652505e-031 98.57499695
rwrist  3.531125038e-031 1.059337512e-030 -71.84079742
rhand  -7.920061211e-032 -33.2840004 9.303460121
rfingers  -90 -7.125020027 -90
rthumb  -92.93752616 -24.25625642 -97.11982154
rfemur  -14.83609962 8.492830276 -2.484499931
rtibia  -0 0 62.79650116
rfoot  -4.956026311e-032 -27.04949951 -4.627610207
rtoes  5.373923086 19.29304026 -105.8922705
lfemur  -20.93829918 -0.9589329958 -8.158209801
ltibia  -0 0 60.58580017
lfoot  -0 -19.76510048 7.764229774
ltoes  -4.250644065 -19.5611806 -102.515957
342
root  8.215755553 36.677332 4.510777766 -174.0469971 -59.38890076 169.6699829
lowerback  13.3718996 4.54764986 3.060080051
upperback  6.872149944 5.908430099 3.79937005
thorax  -0.3258520067 2.744729996 1.456110001
lowerneck  9.387040138 8.459409714 3.001499891
upperneck  13.57670021 10.70479965 2.18614006
head  2.825839996 5.280600071 0.165959999
lclavicle  0 -9.442270133e-015 7.951389973e-016
lhumerus  12.88189983 5.094349861 67.92150116
lradius  2.477546458e-031 -2.516069869e-031 134.5579987
lwrist  -7.062250077e-031 2.206953149e-031 34.01679993
lhand  -1.496451383e-031 -27.76390076 20.11240005
lfingers  90 7.125020027 -90
lthumb  89.89689403 5.08795885 91.16245106
rclavicle  0 -9.442270133e-015 7.951389973e-016
rhumerus  45.35960007 26.36190033 -68.33249664
rradius  -5.749853146e-032 3.483997119e-031 99.37139893
rwrist  3.531125038e-031 -0 -70.34380341
rhand  -7.920061211e-032 -33.2840004 9.303460121
rfingers  -90 -7.125020027 -90
rthumb  -92.93752616 -24.25625642 -97.11982154
rfemur  -14.12339973 8.793919563 -1.929260015
rtibia  -0 0 61.55310059
rfoot  -1.006322439e-031 -28.68939972 -6.824069977
rtoes  5.373923086 19.29304026 -105.8922705
lfemur  -20.74160004 -0.1107370034 -7.938159943
ltibia  -0 0 60.15719986
lfoot  -0 -20.41449928 7.972809792
ltoes  -4.250644065 -19.5611806 -102.515957
343
root  8.125444097 36.63155563 4.48862211 -173.9470215 -59.1427002 169.8839722
lowerback  13.01710033 4.603320122 2.876919985
upperback  6.51267004 6.00369978 3.689510107
thorax  -0.5239930153 2.805229902 1.438639998
lowerneck  8.721540451 8.4354496 3.255500078
upperneck  13.77960014 10.72669983 1.704920053
head  3.057029963 5.303170204 0.01379270013
lclavicle  0 -9.442270133e-015 7.951389973e-016
lhumerus  10.15839958 4.343170166 69.40779877
lradius  2.510788985e-031 -2.482898047e-031 135.3200073
lwrist  -7.062250077e-031 4.413906298e-031 32.14830017
lhand  -1.496451383e-031 -27.76390076 20.11240005
lfingers  90 7.125020027 -90
lthumb  89.89689403 5.08795885 91.16245106
rclavicle  0 -9.442270133e-015 7.951389973e-016
rhumerus  42.93420029 27.26129913 -67.90799713
rradius  -6.317973821e-032 3.474143938e-031 100.3069992
rwrist  7.062250077e-031 -0 -69.20240021
rhand  -7.920061211e-032 -33.2840004 9.303460121
rfingers  -90 -7.125020027 -90
rthumb  -92.93752616 -24.25625642 -97.11982154
rfemur  -13.52070045 9.567700386 -1.524260044
rtibia  -0 0 60.39319992
rfoot  -0 -29.69309998 -9.013090134
rtoes  5.373923086 19.29304026 -105.8922705
lfemur  -20.56030083 0.7183539867 -7.789579868
ltibia  -0 0 59.83349991
lfoot  -0 -20.93659973 7.373419762
ltoes  -4.250644065 -19.5611806 -102.515957
344
root  8.029044144 36.66688814 4.480711118 -174.1309814 -58.85960007 170.2940063
lowerback  12.97029972 4.661409855 2.9135499
upperback  6.157849789 6.130340099 3.601939917
thorax  -0.8593540192 2.878920078 1.296560049
lowerneck  8.014479637 8.374340057 3.37677002
upperneck  13.90639973 10.69610023 1.234290004
head  3.262020111 5.292469978 -0.116756998
lclavicle  0 -9.442270133e-015 7.951389973e-016
lhumerus  7.163149834 3.454349995 70.97730255
lradius  2.546534549e-031 -2.446222768e-031 136.151001
lwrist  -7.062250077e-031 1.71038869e-031 30.51230049
lhand  -1.496451383e-031 -27.76390076 20.11240005
lfingers  90 7.125020027 -90
lthumb  89.89689403 5.08795885 91.16245106
rclavicle  0 -9.442270133e-015 7.951389973e-016
rhumerus  40.35110092 28.2227993 -67.56610107
rradius  -6.870145147e-032 3.463647657e-031 101.2190018
rwrist  7.062250077e-031 7.062250077e-031 -67.96459961
rhand  -7.920061211e-032 -33.2840004 9.303460121
rfingers  -90 -7.125020027 -90
rthumb  -92.93752616 -24.25625642 -97.11982154
rfemur  -12.96360016 10.6967001 -1.044270039
rtibia  -0 0 59.31610107
rfoot  -0 -30.50650024 -9.472740173
rtoes  5.373923086 19.29304026 -105.8922705
lfemur  -20.35180092 1.413550019 -7.530250072
ltibia  -0 0 59.63069916
lfoot  9.453525776e-032 -20.96299934 6.755030155
ltoes  -4.250644065 -19.5611806 -102.515957
345
root  7.930577646 36.73955662 4.497022328 -174.3049927 -58.63159943 170.5499878
lowerback  13.19939995 4.683040142 3.120100021
upperback  5.839109898 6.229390144 3.443579912
thorax  -1.276630044 2.9365201 0.9719070196
lowerneck  7.260129929 8.332229614 3.506040096
upperneck  13.99069977 10.68470001 0.8564100266
head  3.457730055 5.292660236 -0.2195419967
lclavicle  0 -9.442270133e-015 7.951389973e-016
lhumerus  4.037250042 2.468400002 72.65350342
lradius  2.58048278e-031 -2.410384338e-031 136.9519958
lwrist  -7.062250077e-031 -1.103476575e-032 29.22870064
lhand  -1.496451383e-031 -27.76390076 20.11240005
lfingers  90 7.125020027 -90
lthumb  89.89689403 5.08795885 91.16245106
rclavicle  0 -9.442270133e-015 7.951389973e-016
rhumerus  37.26509857 29.3798008 -67.80780029
rradius  -7.483827008e-032 3.450908195e-031 102.2360001
rwrist  1.059337512e-030 -3.531125038e-031 -65.9681015
rhand  -7.920061211e-032 -33.2840004 9.303460121
rfingers  -90 -7.125020027 -90
rthumb  -92.93752616 -24.25625642 -97.11982154
rfemur  -12.53759956 11.08069992 -0.9879209995
rtibia  -0 0 58.38589859
rfoot  -0 -30.68759918 -8.720239639
rtoes  5.373923086 19.29304026 -105.8922705
lfemur  -20.23500061 1.939620018 -7.353449821
ltibia  -0 0 59.6352005
lfoot  4.711676194e-032 -20.47879982 6.038949966
ltoes  -4.250644065 -19.5611806 -102.515957
